<svg height="438pt" viewBox="0 0 438 438.85714" width="438pt" xmlns="http://www.w3.org/2000/svg"><path d="m356.214844 27.425781v36.570313h73.144531v-36.570313c0-10.101562-8.1875-18.285156-18.285156-18.285156h-36.574219c-10.097656 0-18.285156 8.183594-18.285156 18.285156zm0 0" fill="#fccb4f"/><path d="m438.5 73.144531h-91.429688v-45.714843c0-15.125 12.304688-27.429688 27.429688-27.429688h36.570312c15.125 0 27.429688 12.304688 27.429688 27.429688zm-73.144531-18.289062h54.859375v-27.425781c0-5.046876-4.097656-9.144532-9.144532-9.144532h-36.570312c-5.042969 0-9.144531 4.097656-9.144531 9.144532zm0 0" fill="#2a3d4f"/><path d="m27.859375 9.140625h209.5l73.929687 73.140625v329.140625c0 10.101563-8.1875 18.289063-18.285156 18.289063h-265.144531c-10.097656 0-18.285156-8.1875-18.285156-18.289063v-383.996094c0-10.097656 8.1875-18.285156 18.285156-18.285156zm0 0" fill="#e7e4e1"/><path d="m293 438.855469h-265.144531c-15.121094 0-27.425781-12.3125-27.425781-27.4375v-383.988281c0-15.125 12.304687-27.429688 27.425781-27.429688h213.261719l79.3125 78.472656v332.945313c0 15.125-12.304688 27.4375-27.429688 27.4375zm-265.144531-420.570313c-5.042969 0-9.140625 4.097656-9.140625 9.144532v383.988281c0 5.046875 4.097656 9.152343 9.140625 9.152343h265.144531c5.042969 0 9.144531-4.105468 9.144531-9.152343v-325.320313l-68.546875-67.8125zm0 0" fill="#2a3d4f"/><path d="m259.667969 82.28125c-10.097657 0-22.308594-11.414062-22.308594-21.511719v-51.628906l73.929687 73.140625zm0 0" fill="#e7e4e1"/><path d="m311.285156 91.429688h-51.617187c-15.285157 0-31.453125-15.757813-31.453125-30.660157v-51.625c0-3.6875 2.214844-7.019531 5.625-8.441406 3.390625-1.410156 7.328125-.6484375 9.945312 1.9375l73.929688 73.144531c2.632812 2.609375 3.4375 6.546875 2.027344 9.972656-1.410157 3.429688-4.75 5.671876-8.457032 5.671876zm-64.785156-60.375v29.714843c0 4.855469 8 12.375 13.167969 12.375h29.375zm0 0" fill="#2a3d4f"/><path d="m429.359375 356.566406v-292.570312h-73.144531v292.570312zm0 0" fill="#ec763e"/><path d="m429.355469 365.707031h-73.140625c-5.054688 0-9.144532-4.089843-9.144532-9.144531v-292.570312c0-5.054688 4.089844-9.144532 9.144532-9.144532h73.140625c5.054687 0 9.144531 4.089844 9.144531 9.144532v292.570312c0 5.054688-4.089844 9.144531-9.144531 9.144531zm-64-18.289062h54.859375v-274.285157h-54.859375zm0 0" fill="#2a3d4f"/><path d="m429.359375 356.566406h-73.144531l36.570312 73.144532zm0 0" fill="#4b6981"/><g fill="#2a3d4f"><path d="m392.785156 438.847656c-3.464844 0-6.625-1.957031-8.175781-5.054687l-36.574219-73.140625c-1.417968-2.832032-1.265625-6.199219.402344-8.894532 1.667969-2.695312 4.605469-4.339843 7.777344-4.339843h73.140625c3.171875 0 6.109375 1.644531 7.777343 4.339843 1.671876 2.695313 1.824219 6.0625.402344 8.894532l-36.570312 73.140625c-1.554688 3.097656-4.714844 5.054687-8.179688 5.054687zm-21.777344-73.140625 21.777344 43.550781 21.777344-43.550781zm0 0"/><path d="m219.070312 146.285156h-109.714843c-5.050781 0-9.140625-4.089844-9.140625-9.140625 0-5.054687 4.089844-9.144531 9.140625-9.144531h109.714843c5.054688 0 9.144532 4.089844 9.144532 9.144531 0 5.050781-4.089844 9.140625-9.144532 9.140625zm0 0"/><path d="m264.785156 201.144531h-201.140625c-5.054687 0-9.144531-4.089843-9.144531-9.144531s4.089844-9.144531 9.144531-9.144531h201.140625c5.054688 0 9.144532 4.089843 9.144532 9.144531s-4.089844 9.144531-9.144532 9.144531zm0 0"/><path d="m219.070312 256h-109.714843c-5.050781 0-9.140625-4.089844-9.140625-9.144531 0-5.050781 4.089844-9.140625 9.140625-9.140625h109.714843c5.054688 0 9.144532 4.089844 9.144532 9.140625 0 5.054687-4.089844 9.144531-9.144532 9.144531zm0 0"/><path d="m264.785156 310.855469h-201.140625c-5.054687 0-9.144531-4.089844-9.144531-9.140625 0-5.054688 4.089844-9.144532 9.144531-9.144532h201.140625c5.054688 0 9.144532 4.089844 9.144532 9.144532 0 5.050781-4.089844 9.140625-9.144532 9.140625zm0 0"/><path d="m219.070312 365.714844h-109.714843c-5.050781 0-9.140625-4.089844-9.140625-9.144532 0-5.054687 4.089844-9.140624 9.140625-9.140624h109.714843c5.054688 0 9.144532 4.085937 9.144532 9.140624 0 5.054688-4.089844 9.144532-9.144532 9.144532zm0 0"/></g></svg>