<?xml version="1.0" encoding="iso-8859-1"?>
<!-- Generator: Adobe Illustrator 19.0.0, SVG Export Plug-In . SVG Version: 6.00 Build 0)  -->
<svg version="1.1" id="Capa_1" xmlns="http://www.w3.org/2000/svg" xmlns:xlink="http://www.w3.org/1999/xlink" x="0px" y="0px"
	 viewBox="0 0 464 464" style="enable-background:new 0 0 464 464;" xml:space="preserve">
<polygon style="fill:#B3B3B3;" points="0,444 464,444 464,214 384,160.896 80,158.824 0,210.84 "/>
<polygon style="fill:#E6E6E6;" points="384,396 384,76 328,20 80,20 80,396 "/>
<polygon style="fill:#0071BC;" points="328,20 328,76 384,76 "/>
<rect x="128" y="100" style="fill:#FBB03B;" width="96" height="56"/>
<polygon style="fill:#CCCCCC;" points="0,444 464,444 464,214 232,364 0,210.84 "/>
<polygon style="fill:#B3B3B3;" points="464,444 319.44,307.464 232,364 145.304,306.768 0,444 "/>
<g>
	<rect x="152" y="180" style="fill:#999999;" width="192" height="16"/>
	<rect x="120" y="212" style="fill:#999999;" width="224" height="16"/>
	<rect x="120" y="244" style="fill:#999999;" width="224" height="16"/>
	<rect x="120" y="180" style="fill:#999999;" width="16" height="16"/>
	<rect x="248" y="108" style="fill:#999999;" width="16" height="16"/>
	<rect x="120" y="60" style="fill:#999999;" width="16" height="16"/>
	<rect x="152" y="60" style="fill:#999999;" width="16" height="16"/>
	<rect x="248" y="140" style="fill:#999999;" width="96" height="16"/>
	<rect x="280" y="108" style="fill:#999999;" width="64" height="16"/>
</g>
<g>
</g>
<g>
</g>
<g>
</g>
<g>
</g>
<g>
</g>
<g>
</g>
<g>
</g>
<g>
</g>
<g>
</g>
<g>
</g>
<g>
</g>
<g>
</g>
<g>
</g>
<g>
</g>
<g>
</g>
</svg>
